<mxfile host="www.draw.io" modified="2019-11-05T06:22:55.286Z" agent="Mozilla/5.0 (X11; Ubuntu; Linux x86_64; rv:70.0) Gecko/20100101 Firefox/70.0" etag="_9B5WSbtLmVl8YI4JY5A" version="12.2.0" type="github" pages="1">
  <diagram id="jA2Ezu2TtS5SMx9KKT7j" name="Page-1">
    <mxGraphModel dx="1408" dy="1854" grid="1" gridSize="10" guides="1" tooltips="1" connect="1" arrows="1" fold="1" page="1" pageScale="1" pageWidth="850" pageHeight="1100" math="0" shadow="0">
      <root>
        <mxCell id="0"/>
        <mxCell id="1" parent="0"/>
        <mxCell id="4mosWypfH1YMFsxJIaKi-29" style="edgeStyle=orthogonalEdgeStyle;rounded=0;orthogonalLoop=1;jettySize=auto;html=1;exitX=0;exitY=0;exitDx=280;exitDy=0;exitPerimeter=0;entryX=0;entryY=0;entryDx=115;entryDy=190;entryPerimeter=0;endArrow=none;endFill=0;" edge="1" parent="1" source="w_q4eMR3O7fKvEHZuM0d-1" target="4mosWypfH1YMFsxJIaKi-5">
          <mxGeometry relative="1" as="geometry"/>
        </mxCell>
        <mxCell id="w_q4eMR3O7fKvEHZuM0d-1" value="&lt;div&gt;Mobile device&lt;/div&gt;&lt;div&gt;&lt;br&gt;&lt;/div&gt;" style="verticalAlign=top;align=left;spacingTop=8;spacingLeft=2;spacingRight=12;shape=cube;size=10;direction=south;fontStyle=4;html=1;" parent="1" vertex="1">
          <mxGeometry x="110" y="200" width="460" height="570" as="geometry"/>
        </mxCell>
        <mxCell id="4mosWypfH1YMFsxJIaKi-5" value="&lt;div&gt;imdb.com server&lt;/div&gt;&lt;div&gt;&lt;br&gt;&lt;/div&gt;&lt;div&gt;&lt;br&gt;&lt;/div&gt;" style="verticalAlign=top;align=left;spacingTop=8;spacingLeft=2;spacingRight=12;shape=cube;size=10;direction=south;fontStyle=4;html=1;" vertex="1" parent="1">
          <mxGeometry x="630" y="320" width="190" height="220" as="geometry"/>
        </mxCell>
        <mxCell id="4mosWypfH1YMFsxJIaKi-6" value="&amp;laquo;Annotation&amp;raquo;&lt;br/&gt;&lt;b&gt;Component&lt;/b&gt;" style="html=1;" vertex="1" parent="1">
          <mxGeometry x="190" y="-10" width="180" height="90" as="geometry"/>
        </mxCell>
        <mxCell id="4mosWypfH1YMFsxJIaKi-7" value="" style="shape=component;jettyWidth=8;jettyHeight=4;" vertex="1" parent="4mosWypfH1YMFsxJIaKi-6">
          <mxGeometry x="1" width="20" height="20" relative="1" as="geometry">
            <mxPoint x="-27" y="7" as="offset"/>
          </mxGeometry>
        </mxCell>
        <mxCell id="4mosWypfH1YMFsxJIaKi-8" value="Application" style="verticalAlign=top;align=left;spacingTop=8;spacingLeft=2;spacingRight=12;shape=cube;size=10;direction=south;fontStyle=4;html=1;" vertex="1" parent="1">
          <mxGeometry x="130" y="300" width="420" height="260" as="geometry"/>
        </mxCell>
        <mxCell id="4mosWypfH1YMFsxJIaKi-9" value="DB server" style="verticalAlign=top;align=left;spacingTop=8;spacingLeft=2;spacingRight=12;shape=cube;size=10;direction=south;fontStyle=4;html=1;" vertex="1" parent="1">
          <mxGeometry x="220" y="580" width="230" height="180" as="geometry"/>
        </mxCell>
        <mxCell id="4mosWypfH1YMFsxJIaKi-10" value="«component»&lt;br&gt;&lt;b&gt;Component&lt;/b&gt;" style="html=1;" vertex="1" parent="1">
          <mxGeometry x="155" y="380" width="130" height="70" as="geometry"/>
        </mxCell>
        <mxCell id="4mosWypfH1YMFsxJIaKi-11" value="" style="shape=component;jettyWidth=8;jettyHeight=4;" vertex="1" parent="4mosWypfH1YMFsxJIaKi-10">
          <mxGeometry x="1" width="20" height="20" relative="1" as="geometry">
            <mxPoint x="-27" y="7" as="offset"/>
          </mxGeometry>
        </mxCell>
        <mxCell id="4mosWypfH1YMFsxJIaKi-14" value="«component»&lt;br&gt;&lt;b&gt;UserInterface&lt;br&gt;&lt;/b&gt;" style="html=1;" vertex="1" parent="1">
          <mxGeometry x="340" y="380" width="130" height="70" as="geometry"/>
        </mxCell>
        <mxCell id="4mosWypfH1YMFsxJIaKi-15" value="" style="shape=component;jettyWidth=8;jettyHeight=4;" vertex="1" parent="4mosWypfH1YMFsxJIaKi-14">
          <mxGeometry x="1" width="20" height="20" relative="1" as="geometry">
            <mxPoint x="-27" y="7" as="offset"/>
          </mxGeometry>
        </mxCell>
        <mxCell id="4mosWypfH1YMFsxJIaKi-16" value="«component»&lt;br&gt;&lt;b&gt;Component&lt;/b&gt;" style="html=1;" vertex="1" parent="1">
          <mxGeometry x="155" y="480" width="130" height="70" as="geometry"/>
        </mxCell>
        <mxCell id="4mosWypfH1YMFsxJIaKi-17" value="" style="shape=component;jettyWidth=8;jettyHeight=4;" vertex="1" parent="4mosWypfH1YMFsxJIaKi-16">
          <mxGeometry x="1" width="20" height="20" relative="1" as="geometry">
            <mxPoint x="-27" y="7" as="offset"/>
          </mxGeometry>
        </mxCell>
        <mxCell id="4mosWypfH1YMFsxJIaKi-18" value="«component»&lt;br&gt;&lt;b&gt;Component&lt;/b&gt;" style="html=1;" vertex="1" parent="1">
          <mxGeometry x="340" y="480" width="130" height="70" as="geometry"/>
        </mxCell>
        <mxCell id="4mosWypfH1YMFsxJIaKi-19" value="" style="shape=component;jettyWidth=8;jettyHeight=4;" vertex="1" parent="4mosWypfH1YMFsxJIaKi-18">
          <mxGeometry x="1" width="20" height="20" relative="1" as="geometry">
            <mxPoint x="-27" y="7" as="offset"/>
          </mxGeometry>
        </mxCell>
        <mxCell id="4mosWypfH1YMFsxJIaKi-22" value="«component»&lt;br&gt;&lt;b&gt;Database&lt;/b&gt;" style="html=1;" vertex="1" parent="1">
          <mxGeometry x="660" y="410" width="130" height="70" as="geometry"/>
        </mxCell>
        <mxCell id="4mosWypfH1YMFsxJIaKi-23" value="" style="shape=component;jettyWidth=8;jettyHeight=4;" vertex="1" parent="4mosWypfH1YMFsxJIaKi-22">
          <mxGeometry x="1" width="20" height="20" relative="1" as="geometry">
            <mxPoint x="-27" y="7" as="offset"/>
          </mxGeometry>
        </mxCell>
        <mxCell id="4mosWypfH1YMFsxJIaKi-24" value="&lt;div&gt;«executable»&lt;/div&gt;&lt;div&gt;Database&lt;br&gt;&lt;/div&gt;" style="html=1;" vertex="1" parent="1">
          <mxGeometry x="275" y="650" width="130" height="70" as="geometry"/>
        </mxCell>
        <mxCell id="4mosWypfH1YMFsxJIaKi-25" value="" style="shape=component;jettyWidth=8;jettyHeight=4;strokeColor=none;" vertex="1" parent="4mosWypfH1YMFsxJIaKi-24">
          <mxGeometry x="1" width="20" height="20" relative="1" as="geometry">
            <mxPoint x="-27" y="7" as="offset"/>
          </mxGeometry>
        </mxCell>
        <mxCell id="4mosWypfH1YMFsxJIaKi-26" value="" style="rounded=0;orthogonalLoop=1;jettySize=auto;html=1;endArrow=none;endFill=0;" edge="1" target="4mosWypfH1YMFsxJIaKi-28" parent="1">
          <mxGeometry relative="1" as="geometry">
            <mxPoint x="40" y="645" as="sourcePoint"/>
          </mxGeometry>
        </mxCell>
        <mxCell id="4mosWypfH1YMFsxJIaKi-27" value="" style="rounded=0;orthogonalLoop=1;jettySize=auto;html=1;endArrow=halfCircle;endFill=0;entryX=0.5;entryY=0.5;entryDx=0;entryDy=0;endSize=6;strokeWidth=1;" edge="1" target="4mosWypfH1YMFsxJIaKi-28" parent="1">
          <mxGeometry relative="1" as="geometry">
            <mxPoint x="80" y="645" as="sourcePoint"/>
          </mxGeometry>
        </mxCell>
        <mxCell id="4mosWypfH1YMFsxJIaKi-28" value="" style="ellipse;whiteSpace=wrap;html=1;fontFamily=Helvetica;fontSize=12;fontColor=#000000;align=center;strokeColor=#000000;fillColor=#ffffff;points=[];aspect=fixed;resizable=0;" vertex="1" parent="1">
          <mxGeometry x="55" y="640" width="10" height="10" as="geometry"/>
        </mxCell>
      </root>
    </mxGraphModel>
  </diagram>
</mxfile>
